<?xml version="1.0" encoding="utf-8"?>
<!-- Generator: Adobe Illustrator 18.1.1, SVG Export Plug-In . SVG Version: 6.00 Build 0)  -->
<svg version="1.1" xmlns="http://www.w3.org/2000/svg" xmlns:xlink="http://www.w3.org/1999/xlink" x="0px" y="0px"
	 viewBox="0 0 405 237.7" enable-background="new 0 0 405 237.7" xml:space="preserve">
<g id="Layer_2">
	<rect x="0" y="0" fill="#FF706C" width="405" height="237.7"/>
</g>
<g id="Layer_1">
	<g>
		<path fill="none" stroke="#FFFFFF" stroke-width="5" stroke-miterlimit="10" d="M348.3,196.3c0,0.5-0.4,1-1,1h-275
			c-0.6,0-1-0.5-1-1V44.8c0-0.5,0.4-1,1-1h275c0.6,0,1,0.5,1,1V196.3z"/>
	</g>
	<line fill="#FFFFFF" stroke="#FFFFFF" stroke-width="5" stroke-miterlimit="10" x1="71.3" y1="155.5" x2="112.4" y2="196.6"/>
	<path fill="none" stroke="#FFFFFF" stroke-width="5" stroke-miterlimit="10" d="M187.3,117.2c0,19-15.4,34.4-34.4,34.4l0,0
		c-19,0-34.4-15.4-34.4-34.4l0,0c0-19,15.4-34.4,34.4-34.4l0,0C171.9,82.8,187.3,98.2,187.3,117.2L187.3,117.2z"/>
	<path fill="none" stroke="#FFFFFF" stroke-width="5" stroke-miterlimit="10" d="M301.1,116.5c0,13.4-10.8,24.2-24.2,24.2l0,0
		c-13.4,0-24.2-10.8-24.2-24.2l0,0c0-13.4,10.8-24.2,24.2-24.2l0,0C290.2,92.3,301.1,103.1,301.1,116.5L301.1,116.5z"/>
	<path fill="none" stroke="#FFFFFF" stroke-width="5" stroke-miterlimit="10" d="M161.8,117.2c0,4.9-4,8.9-8.9,8.9l0,0
		c-4.9,0-8.9-4-8.9-8.9l0,0c0-4.9,4-8.9,8.9-8.9l0,0C157.8,108.3,161.8,112.3,161.8,117.2L161.8,117.2z"/>
	<path fill="none" stroke="#FFFFFF" stroke-width="5" stroke-miterlimit="10" d="M287.6,116.5c0,6-4.8,10.8-10.8,10.8l0,0
		c-6,0-10.8-4.8-10.8-10.8l0,0c0-6,4.8-10.8,10.8-10.8l0,0C282.8,105.7,287.6,110.6,287.6,116.5L287.6,116.5z"/>
	<line fill="#FFFFFF" stroke="#FFFFFF" stroke-width="5" stroke-miterlimit="10" x1="159.1" y1="172.4" x2="252.9" y2="172.4"/>
	<line fill="#FFFFFF" stroke="#FFFFFF" stroke-width="5" stroke-miterlimit="10" x1="249.8" y1="170.9" x2="267.3" y2="196.6"/>
	<line fill="#FFFFFF" stroke="#FFFFFF" stroke-width="5" stroke-miterlimit="10" x1="162.2" y1="171.1" x2="143.4" y2="196.6"/>
	<line fill="#FFFFFF" stroke="#FFFFFF" stroke-width="5" stroke-miterlimit="10" x1="86.9" y1="171.1" x2="86.9" y2="63.3"/>
	<line fill="#FFFFFF" stroke="#FFFFFF" stroke-width="5" stroke-miterlimit="10" x1="83.1" y1="63.3" x2="335.5" y2="63.3"/>
	<line fill="#FFFFFF" stroke="#FFFFFF" stroke-width="5" stroke-miterlimit="10" x1="331.7" y1="63.3" x2="331.7" y2="169.7"/>
	<line fill="#FFFFFF" stroke="#FFFFFF" stroke-width="5" stroke-miterlimit="10" x1="152.9" y1="82.8" x2="276.8" y2="92.3"/>
	<line fill="#FFFFFF" stroke="#FFFFFF" stroke-width="5" stroke-miterlimit="10" x1="152.9" y1="151.6" x2="281.1" y2="140.4"/>
	<line fill="#FFFFFF" stroke="#FFFFFF" stroke-width="5" stroke-miterlimit="10" x1="349.5" y1="151.6" x2="305.1" y2="196.6"/>
</g>
</svg>
