<?xml version="1.0" encoding="utf-8"?>
<!-- Generator: Adobe Illustrator 18.1.1, SVG Export Plug-In . SVG Version: 6.00 Build 0)  -->
<svg version="1.1" xmlns="http://www.w3.org/2000/svg" xmlns:xlink="http://www.w3.org/1999/xlink" x="0px" y="0px"
	 viewBox="0 0 405 237.7" enable-background="new 0 0 405 237.7" xml:space="preserve">
<g id="Layer_2">
	<rect x="0" y="0" fill="#FF706C" width="405" height="237.7"/>
</g>
<g id="Layer_1">
	<path fill="#FFFFFF" d="M196.3,51.3c-1,1-3,0.6-4.4-0.8l0,0C190.4,49,190,47,191,46l13.3-13.3c1-1,3-0.6,4.4,0.8l0,0
		c1.5,1.5,1.8,3.4,0.8,4.4L196.3,51.3z"/>
	<path fill="#FFFFFF" d="M287.5,51.3c1,1,3,0.6,4.4-0.8l0,0c1.5-1.5,1.8-3.4,0.8-4.4l-13.3-13.3c-1-1-3-0.6-4.4,0.8l0,0
		c-1.5,1.5-1.8,3.4-0.8,4.4L287.5,51.3z"/>
	<path fill="#FFFFFF" d="M280.7,35.3c0,1.8-1.4,3.3-3.2,3.3h-71c-1.8,0-3.2-1.5-3.2-3.3l0,0c0-1.8,1.4-3.3,3.2-3.3h71
		C279.3,32,280.7,33.5,280.7,35.3L280.7,35.3z"/>
	<path fill="#FFFFFF" d="M111.2,39.5c0-1.8,1.5-3.3,3.3-3.3l0,0c1.8,0,3.3,1.5,3.3,3.3v9.1c0,1.8-1.5,3.3-3.3,3.3l0,0
		c-1.8,0-3.3-1.5-3.3-3.3V39.5z"/>
	<path fill="#FFFFFF" d="M135,39.2c0-1.8,1.5-3.3,3.3-3.3l0,0c1.8,0,3.3,1.5,3.3,3.3v9.1c0,1.8-1.5,3.3-3.3,3.3l0,0
		c-1.8,0-3.3-1.5-3.3-3.3V39.2z"/>
	<path fill="#FFFFFF" d="M111.2,39c0-1.8,1.5-3.2,3.4-3.2h23.5c1.9,0,3.4,1.4,3.4,3.2l0,0c0,1.8-1.5,3.2-3.4,3.2h-23.5
		C112.8,42.2,111.2,40.8,111.2,39L111.2,39z"/>
	<g>
		<path fill="none" stroke="#FFFFFF" stroke-width="5" stroke-miterlimit="10" d="M318.9,202.7c0,1.6-1.4,3-3,3H89.1
			c-1.7,0-3-1.4-3-3V52.1c0-1.6,1.3-3,3-3h226.7c1.6,0,3,1.4,3,3V202.7z"/>
	</g>
	<circle fill="none" stroke="#FFFFFF" stroke-width="5" stroke-miterlimit="10" cx="241.7" cy="127.4" r="56.2"/>
	<path fill="none" stroke="#FFFFFF" stroke-width="5" stroke-miterlimit="10" d="M284.1,127.4c0,23.4-19,42.5-42.5,42.5
		c-23.4,0-42.5-19-42.5-42.5c0-23.4,19-42.5,42.5-42.5C265.1,84.9,284.1,104,284.1,127.4z"/>
	<path fill="none" stroke="#FFFFFF" stroke-width="5" stroke-miterlimit="10" d="M142.4,88.5c0,7.6-6.2,13.8-13.8,13.8
		c-7.6,0-13.8-6.2-13.8-13.8c0-7.6,6.2-13.8,13.8-13.8C136.2,74.7,142.4,80.8,142.4,88.5z"/>
	<path fill="#FFFFFF" d="M158.9,142.4c0,1.8-1.4,3.2-3.2,3.2h-41.1c-1.8,0-3.2-1.4-3.2-3.2l0,0c0-1.8,1.4-3.2,3.2-3.2h41.1
		C157.5,139.3,158.9,140.7,158.9,142.4L158.9,142.4z"/>
	<path fill="#FFFFFF" d="M168.3,156.8c0,1.8-1.7,3.2-3.8,3.2h-49.2c-2.1,0-3.8-1.4-3.8-3.2l0,0c0-1.8,1.7-3.2,3.8-3.2h49.2
		C166.6,153.6,168.3,155,168.3,156.8L168.3,156.8z"/>
	<path fill="#FFFFFF" d="M179.3,171.9c0,1.8-2,3.2-4.6,3.2h-59c-2.5,0-4.6-1.4-4.6-3.2l0,0c0-1.8,2-3.2,4.6-3.2h59
		C177.3,168.8,179.3,170.2,179.3,171.9L179.3,171.9z"/>
	<path fill="none" stroke="#FFFFFF" stroke-width="5" stroke-miterlimit="10" d="M104.9,80.2c4-9.2,13.1-15.6,23.8-15.6
		c10.7,0,19.8,6.4,23.8,15.6c0,0-17.7-5.5-23.8-5.5C122.5,74.7,104.9,80.2,104.9,80.2z"/>
</g>
</svg>
