<?xml version="1.0" encoding="utf-8"?>
<!-- Generator: Adobe Illustrator 18.1.1, SVG Export Plug-In . SVG Version: 6.00 Build 0)  -->
<svg version="1.1" xmlns="http://www.w3.org/2000/svg" xmlns:xlink="http://www.w3.org/1999/xlink" x="0px" y="0px"
	 viewBox="0 0 405 237.7" enable-background="new 0 0 405 237.7" xml:space="preserve">
<g id="Layer_2">
	<rect x="0" y="0" fill="#FF706C" width="405" height="237.7"/>
</g>
<g id="Layer_1">
	<polyline fill="none" stroke="#FFFFFF" stroke-width="5" stroke-miterlimit="10" points="158.7,82.9 300.9,82.9 300.9,208.6 
		104.1,208.6 104.1,109.7 	"/>
	<g>
		<path fill="none" stroke="#FFFFFF" stroke-width="5" stroke-miterlimit="10" d="M300.9,37C300.9,37,300.9,37,300.9,37l0,29.9
			c0,0,0,0,0,0H151.2c0,0,0,0,0,0L126.7,37c0,0,0,0,0,0H300.9z"/>
	</g>
	<line fill="#FFFFFF" stroke="#FFFFFF" stroke-width="5" stroke-miterlimit="10" x1="104.1" y1="110.6" x2="297.3" y2="110.6"/>
	<line fill="#FFFFFF" stroke="#FFFFFF" stroke-width="5" stroke-miterlimit="10" x1="280.2" y1="82.9" x2="251.4" y2="111.7"/>
	<line fill="#FFFFFF" stroke="#FFFFFF" stroke-width="5" stroke-miterlimit="10" x1="280.2" y1="82.9" x2="251.4" y2="111.7"/>
	<line fill="#FFFFFF" stroke="#FFFFFF" stroke-width="5" stroke-miterlimit="10" x1="280.2" y1="82.9" x2="251.4" y2="111.7"/>
	<line fill="#FFFFFF" stroke="#FFFFFF" stroke-width="5" stroke-miterlimit="10" x1="249.5" y1="82.9" x2="220.6" y2="111.7"/>
	<line fill="#FFFFFF" stroke="#FFFFFF" stroke-width="5" stroke-miterlimit="10" x1="220.6" y1="82.9" x2="191.8" y2="111.7"/>
	<line fill="#FFFFFF" stroke="#FFFFFF" stroke-width="5" stroke-miterlimit="10" x1="189.8" y1="82.9" x2="161" y2="111.7"/>
	<line fill="#FFFFFF" stroke="#FFFFFF" stroke-width="5" stroke-miterlimit="10" x1="282.6" y1="66.4" x2="253.8" y2="37.5"/>
	<line fill="#FFFFFF" stroke="#FFFFFF" stroke-width="5" stroke-miterlimit="10" x1="251.9" y1="66.4" x2="223.1" y2="37.5"/>
	<line fill="#FFFFFF" stroke="#FFFFFF" stroke-width="5" stroke-miterlimit="10" x1="223.1" y1="66.4" x2="194.3" y2="37.5"/>
	<line fill="#FFFFFF" stroke="#FFFFFF" stroke-width="5" stroke-miterlimit="10" x1="192.3" y1="66.4" x2="163.4" y2="37.5"/>
	<line fill="#FFFFFF" stroke="#FFFFFF" stroke-width="5" stroke-miterlimit="10" x1="118.5" y1="133.9" x2="276.3" y2="133.9"/>
	<line fill="#FFFFFF" stroke="#FFFFFF" stroke-width="5" stroke-miterlimit="10" x1="118.5" y1="156" x2="167.8" y2="156"/>
	<line fill="#FFFFFF" stroke="#FFFFFF" stroke-width="5" stroke-miterlimit="10" x1="118.5" y1="179.3" x2="167.8" y2="179.3"/>
	<line fill="#FFFFFF" stroke="#FFFFFF" stroke-width="5" stroke-miterlimit="10" x1="126.7" y1="37" x2="104.1" y2="37"/>
	<line fill="#FFFFFF" stroke="#FFFFFF" stroke-width="5" stroke-miterlimit="10" x1="104.1" y1="117.3" x2="104.1" y2="29.1"/>
	<line fill="#FFFFFF" stroke="#FFFFFF" stroke-width="5" stroke-miterlimit="10" x1="161" y1="82.9" x2="104.1" y2="82.9"/>
	<line fill="#FFFFFF" stroke="#FFFFFF" stroke-width="5" stroke-miterlimit="10" x1="151.2" y1="66.9" x2="135.2" y2="82.9"/>
	<line fill="#FFFFFF" stroke="#FFFFFF" stroke-width="5" stroke-miterlimit="10" x1="161.4" y1="82.9" x2="132.5" y2="111.7"/>
	<path fill="#FFFFFF" d="M128.8,61.1c0,3.7-3,6.6-6.6,6.6c-3.7,0-6.6-3-6.6-6.6c0-3.7,3-6.6,6.6-6.6
		C125.8,54.4,128.8,57.4,128.8,61.1z"/>
</g>
</svg>
