<?xml version="1.0" encoding="utf-8"?>
<!-- Generator: Adobe Illustrator 18.1.1, SVG Export Plug-In . SVG Version: 6.00 Build 0)  -->
<svg version="1.1" id="Layer_1" xmlns="http://www.w3.org/2000/svg" xmlns:xlink="http://www.w3.org/1999/xlink" x="0px" y="0px"
	 viewBox="0 0 514 492" enable-background="new 0 0 514 492" xml:space="preserve">
<path fill="none" stroke="#FFFFFF" stroke-width="15" stroke-miterlimit="10" d="M337.5,176.7c0,88.5-71.8,160.3-160.3,160.3
	c-88.5,0-160.3-71.8-160.3-160.3c0-88.5,71.7-160.3,160.3-160.3C265.7,16.4,337.5,88.1,337.5,176.7z"/>
<path fill="none" stroke="#FFFFFF" stroke-width="15" stroke-miterlimit="10" d="M292.1,175.1c0,63.2-51.2,114.4-114.4,114.4
	c-63.1,0-114.3-51.2-114.3-114.4c0-63.2,51.2-114.3,114.3-114.3C240.9,60.8,292.1,112,292.1,175.1z"/>
<g>
	<path fill="none" stroke="#FFFFFF" stroke-width="15" stroke-miterlimit="10" d="M315.2,258.3L468,411.4c0.8,0.8,0.8,2.1,0,2.8
		l-53.3,53.5c-0.8,0.8-2,0.8-2.8,0L258.5,314.6"/>
</g>
<line fill="#FFFFFF" stroke="#FFFFFF" stroke-width="15" stroke-miterlimit="10" x1="384" y1="432.6" x2="434" y2="381.5"/>
<line fill="#FFFFFF" stroke="#FFFFFF" stroke-width="15" stroke-miterlimit="10" x1="353.4" y1="403.2" x2="403.5" y2="352.5"/>
<path fill="#FFFFFF" d="M171.5,90.6l1,21.4l-1.5,0.1c-35.7,1.6-63.3,32-61.7,67.5l0,0.7l-19.1,0.9c-0.2-0.5-0.2-1.2-0.3-1.7
	c-1-23.4,7.6-45,22.3-61.1c14.7-16.1,35.4-26.6,58.8-27.6L171.5,90.6z"/>
</svg>
